<?xml version="1.0" encoding="UTF-8" standalone="no"?>
<!DOCTYPE svg PUBLIC "-//W3C//DTD SVG 1.1//EN" "http://www.w3.org/Graphics/SVG/1.1/DTD/svg11.dtd">
<svg version="1.1" xmlns="http://www.w3.org/2000/svg" xmlns:xlink="http://www.w3.org/1999/xlink" preserveAspectRatio="xMidYMid meet" viewBox="0 0 640 640" width="640" height="640"><defs><path d="M515.15 543.82L515.09 546.42L514.91 549.01L514.6 551.56L514.18 554.08L513.64 556.57L512.99 559.03L512.23 561.45L511.36 563.82L510.39 566.16L509.31 568.46L508.13 570.71L506.85 572.91L505.48 575.06L504.01 577.17L502.45 579.21L500.8 581.21L499.07 583.14L497.25 585.02L495.35 586.84L493.37 588.59L491.31 590.27L489.18 591.89L486.98 593.44L484.71 594.92L482.36 596.32L479.96 597.65L477.49 598.9L474.96 600.07L472.38 601.16L469.74 602.17L467.04 603.08L464.3 603.92L461.51 604.66L458.67 605.3L455.79 605.86L452.86 606.32L449.9 606.68L446.9 606.94L443.87 607.09L440.81 607.15L440.81 607.15L194.51 607.15L194.51 607.01L193.1 606.94L190.1 606.68L187.14 606.32L184.21 605.86L181.33 605.3L178.49 604.66L175.7 603.92L172.96 603.08L170.26 602.17L167.62 601.16L165.04 600.07L162.51 598.9L160.04 597.65L157.64 596.32L155.29 594.92L153.02 593.44L150.82 591.89L148.69 590.27L146.63 588.59L144.65 586.84L142.75 585.02L140.93 583.14L139.2 581.21L137.55 579.21L135.99 577.17L134.52 575.06L133.15 572.91L131.87 570.71L130.69 568.46L129.61 566.16L128.64 563.82L127.77 561.45L127.01 559.03L126.36 556.57L125.82 554.08L125.4 551.56L125.09 549.01L124.91 546.42L124.85 543.82L124.85 543.82L124.85 195.5L515.15 195.5L515.15 543.82L515.15 543.82ZM359.66 37.33L361.59 37.53L363.5 37.8L365.38 38.14L367.24 38.56L369.07 39.05L370.87 39.61L372.64 40.24L374.38 40.94L376.08 41.69L377.74 42.52L379.37 43.4L380.96 44.35L382.51 45.35L384.02 46.41L385.49 47.53L386.91 48.7L388.28 49.93L389.6 51.2L390.88 52.53L392.1 53.9L393.28 55.32L394.39 56.79L395.46 58.29L396.46 59.84L397.4 61.43L398.29 63.06L399.11 64.73L399.87 66.43L400.57 68.17L401.2 69.94L401.76 71.74L402.25 73.57L402.66 75.43L403.01 77.31L403.28 79.22L403.48 81.15L403.6 83.11L403.64 85.08L403.64 100.5L515.15 100.5L516.61 100.55L518.03 100.69L519.41 100.92L520.76 101.24L522.07 101.63L523.33 102.11L524.53 102.66L525.68 103.29L526.78 103.98L527.81 104.74L528.77 105.56L529.66 106.43L530.47 107.36L531.2 108.35L531.85 109.37L532.41 110.45L532.88 111.56L533.25 112.71L533.52 113.89L533.69 115.1L533.74 116.33L533.74 179.66L106.26 179.66L106.26 116.33L106.31 115.1L106.48 113.89L106.75 112.71L107.12 111.56L107.59 110.45L108.15 109.37L108.8 108.35L109.53 107.36L110.34 106.43L111.23 105.56L112.19 104.74L113.22 103.98L114.32 103.29L115.47 102.66L116.67 102.11L117.93 101.63L119.24 101.24L120.59 100.92L121.97 100.69L123.39 100.55L124.85 100.5L236.36 100.5L236.36 86.69L236.4 84.65L236.53 82.63L236.73 80.63L237.01 78.66L237.37 76.71L237.8 74.79L238.31 72.9L238.89 71.04L239.54 69.21L240.25 67.42L241.04 65.66L241.89 63.93L242.8 62.25L243.78 60.61L244.82 59L245.92 57.45L247.07 55.93L248.28 54.46L249.55 53.04L250.87 51.68L252.24 50.36L253.66 49.09L255.12 47.88L256.64 46.73L258.2 45.63L259.8 44.59L261.44 43.61L263.13 42.7L264.85 41.85L266.61 41.06L268.4 40.34L270.23 39.69L272.09 39.12L273.98 38.61L275.9 38.18L277.85 37.82L279.83 37.54L281.82 37.33L283.84 37.21L285.88 37.17L355.73 37.17L357.7 37.21L359.66 37.33ZM288.71 68.85L288.07 68.89L287.43 68.95L286.8 69.04L286.18 69.16L285.56 69.3L284.96 69.46L284.36 69.64L283.78 69.85L283.2 70.08L282.64 70.33L282.09 70.6L281.55 70.9L281.03 71.21L280.52 71.54L280.02 71.89L279.53 72.26L279.06 72.65L278.61 73.05L278.17 73.47L277.75 73.91L277.35 74.36L276.96 74.83L276.59 75.32L276.24 75.82L275.91 76.33L275.59 76.85L275.3 77.39L275.03 77.94L274.78 78.51L274.55 79.08L274.34 79.66L274.16 80.26L273.99 80.86L273.86 81.48L273.74 82.1L273.65 82.73L273.59 83.37L273.55 84.02L273.53 84.67L273.53 100.5L366.47 100.5L366.47 84.67L366.45 84.02L366.41 83.37L366.35 82.73L366.26 82.1L366.14 81.48L366.01 80.86L365.84 80.26L365.66 79.66L365.45 79.08L365.22 78.51L364.97 77.94L364.7 77.39L364.41 76.85L364.09 76.33L363.76 75.82L363.41 75.32L363.04 74.83L362.65 74.36L362.25 73.91L361.83 73.47L361.39 73.05L360.94 72.65L360.47 72.26L359.98 71.89L359.48 71.54L358.97 71.21L358.45 70.9L357.91 70.6L357.36 70.33L356.8 70.08L356.22 69.85L355.64 69.64L355.04 69.46L354.44 69.3L353.82 69.16L353.2 69.04L352.57 68.95L351.93 68.89L351.29 68.85L350.63 68.84L289.37 68.84L288.71 68.85Z" id="ckpFG8Oi"></path></defs><g><g><g><use xlink:href="#ckpFG8Oi" opacity="1" fill="#000000" fill-opacity="1"></use></g></g></g></svg>